P2
# PGM Sample Image : PMS
18 9
255
0  0  0  0  0  0 0  0  0  0  0  0 0   0   0   0   0   0
0 32 32 32  0  0 0 64  0  0  0 64 0   0 128 128 128   0
0 32  0  0 32  0 0 64 64  0 64 64 0 128   0   0   0   0
0 32  0  0  0 32 0 64 64  0 64 64 0 128   0   0   0   0
0 32  0  0  0 32 0 64  0 64  0 64 0   0 128 128   0   0
0 32 32 32 32  0 0 64  0 64  0 64 0   0   0   0 128   0
0 32  0  0  0  0 0 64  0 64  0 64 0   0   0   0 128   0
0 32  0  0  0  0 0 64  0  0  0 64 0 128 128 128   0   0
0 0  0  0  0  0 0  0  0  0  0   0 0   0   0   0   0   0