P3
# PBM Sample Image : PMS
18 9
255
0 0 0    0 0 0   0 0 0    0 0 0    0 0 0    0 0 0  0 0 0  0 0 0    0 0 0    0 0 0    0 0 0    0 0 0    0 0 0  0   0 0  0   0 0  0   0 0  0   0 0  0 0 0
0 0 0  255 0 0 255 0 0  255 0 0    0 0 0    0 0 0  0 0 0  0 0 255  0 0 0    0 0 0    0 0 0    0 0 255  0 0 0  0   0 0  0 255 0  0 255 0  0 255 0  0 0 0
0 0 0  255 0 0   0 0 0    0 0 0  255 0 0    0 0 0  0 0 0  0 0 255  0 0 255  0 0 0    0 0 255  0 0 255  0 0 0  0 255 0  0   0 0  0   0 0  0   0 0  0 0 0
0 0 0  255 0 0   0 0 0    0 0 0    0 0 0  255 0 0  0 0 0  0 0 255  0 0 255  0 0 0    0 0 255  0 0 255  0 0 0  0 255 0  0   0 0  0   0 0  0   0 0  0 0 0
0 0 0  255 0 0   0 0 0    0 0 0    0 0 0  255 0 0  0 0 0  0 0 255  0 0 0    0 0 255  0 0 0    0 0 255  0 0 0  0   0 0  0 255 0  0 255 0  0   0 0  0 0 0
0 0 0  255 0 0 255 0 0  255 0 0  255 0 0    0 0 0  0 0 0  0 0 255  0 0 0    0 0 255  0 0 0    0 0 255  0 0 0  0   0 0  0   0 0  0   0 0  0 255 0  0 0 0
0 0 0  255 0 0   0 0 0    0 0 0    0 0 0    0 0 0  0 0 0  0 0 255  0 0 0    0 0 255  0 0 0    0 0 255  0 0 0  0   0 0  0   0 0  0   0 0  0 255 0  0 0 0
0 0 0  255 0 0   0 0 0    0 0 0    0 0 0    0 0 0  0 0 0  0 0 255  0 0 0    0 0 0    0 0 0    0 0 255  0 0 0  0 255 0  0 255 0  0 255 0  0   0 0  0 0 0
0 0 0    0 0 0   0 0 0    0 0 0    0 0 0    0 0 0  0 0 0  0 0 0    0 0 0    0 0 0    0 0 0    0 0 0    0 0 0  0   0 0  0   0 0  0   0 0  0   0 0  0 0 0